<svg xmlns="http://www.w3.org/2000/svg" width="2204" height="600" viewBox="0 0 2204 600">
  <defs>
    <style>
      .cls-1, .cls-3 {
        fill: #1abb9c;
      }

      .cls-2 {
        fill: #fb494d;
      }

      .cls-3 {
        fill-rule: evenodd;
      }
    </style>
  </defs>
  <rect class="cls-1" width="100" height="600" rx="50" ry="50"/>
  <rect class="cls-2" x="119" y="75" width="100" height="450" rx="50" ry="50"/>
  <rect class="cls-1" x="238" y="25" width="100" height="550" rx="50" ry="50"/>
  <rect class="cls-1" x="1866" width="100" height="600" rx="50" ry="50"/>
  <path id="FOREX_SIMPLE_SIGNALS" data-name="FOREX SIMPLE SIGNALS" class="cls-3" d="M437.4,175.308q8.691,0,18.555.195a3.271,3.271,0,0,1,3.027,2.735l3.614,13.867,6.445-.586q-0.292-14.062-.293-20.9,0-7.031.293-21.191l-6.445.293L459.08,163.1a3.264,3.264,0,0,1-3.32,2.637q-9.669.2-18.262,0.195h-5.566v-54.1h37.793l6.25,23.731,5.273-.781,6.055-32.52-0.684-.781q-25.488.391-49.219,0.39H412.693q-12.3,0-25.976-.39l0.293,4.98,13.086,3.809a3.158,3.158,0,0,1,2.343,3.222q0.1,3.323.147,7.325t0.049,8.886v77.832q0,11.525-.2,19.434A3.215,3.215,0,0,1,399.8,230l-13.086,3.614,0.488,4.882q13.574-.293,30.469-0.293,16.5,0,31.64.293l-0.293-4.882-14.355-4.1a3.236,3.236,0,0,1-2.539-3.125q-0.2-7.324-.195-18.848V175.308H437.4Zm100.44-52.783q9.324-15.089,29.931-15.088,21.29,0,31.446,16.26t10.156,46.533q0,32.226-9.619,47.265t-29.736,15.039q-20.412,0-30.957-16.552t-10.547-47.8Q528.514,137.614,537.84,122.525Zm85.791-5.86q-18.555-18.407-52.539-18.408-35.353,0-55.371,19.678T495.7,171.4q0,32.423,18.555,51.416t52.539,18.994q35.546,0,55.469-20.557t19.922-54.346Q642.186,135.075,623.631,116.665Zm81.543,58.252,4.1,0.1a10.457,10.457,0,0,1,2.588.439,6.439,6.439,0,0,1,1.953,1.075,8.756,8.756,0,0,1,1.856,2.2q0.927,1.464,2.392,3.711,4.883,7.813,9.327,15.82t8.642,15.137q4.2,7.129,7.959,12.793a38.594,38.594,0,0,0,8.252,9.179,22.618,22.618,0,0,0,6.934,3.614q3.9,1.268,13.672,1.269a156.183,156.183,0,0,0,21.875-1.367l-0.391-4.98q-2.442-.487-4.443-1.026a25.233,25.233,0,0,1-3.76-1.318,22.385,22.385,0,0,1-3.369-1.856,39.284,39.284,0,0,1-3.369-2.539,56.239,56.239,0,0,1-6.885-8.789q-3.663-5.566-8.154-12.842t-8.936-14.794q-4.444-7.519-12.647-19.629,14.844-4.784,22.51-13.721t7.666-23.486q0-16.114-12.549-24.512t-37.646-8.4q-2.247,0-6.2.1t-9.815.293q-6.446.2-10.937,0.342t-7.52.146q-14.355,0-28.027-.39l0.293,4.98,13.086,3.809a3.16,3.16,0,0,1,2.344,3.222q0.1,3.323.146,7.325t0.049,8.886v77.832q0,5.861-.049,10.694t-0.146,8.74A3.242,3.242,0,0,1,673.338,230l-13.086,3.614,0.488,4.882q13.379-.293,30.469-0.293,16.016,0,26.855.293l-0.293-4.882-10.156-3.321q-2.149-.681-2.246-3.808-0.1-3.808-.146-8.448t-0.049-10.5V174.917Zm0-63.769q3.222-.39,5.81-0.586t4.834-.2q13.086,0,19.287,6.592t6.2,20.948q0,14.844-6.446,21.826t-20.312,6.982q-4.2,0-9.375-.293V111.148Zm96.094-9.668,0.293,4.98,13.085,3.809a3.159,3.159,0,0,1,2.344,3.222q0.1,3.323.147,7.325t0.049,8.886v77.832q0,5.861-.049,10.694t-0.147,8.74A3.24,3.24,0,0,1,814.354,230l-13.086,3.614,0.488,4.882q13.378-.293,25.976-0.293h25.879q23.046,0,47.364.293l0.683-.683L904,201.284l-5.957.879-12.3,25.684H846.678q-0.2-10.547-.2-21.289v-33.5h5.176q8.592,0,18.555.195,2.246,0.1,3.027,2.734l3.614,13.77,6.445-.488q-0.292-14.062-.293-20.9,0-7.03.293-21.191l-6.445.293-3.516,13.379a3.365,3.365,0,0,1-3.32,2.636q-9.767.2-18.262,0.2h-5.274V111.831h37.793l6.25,23.731,5.274-.781,6.055-32.52-0.684-.781q-25.488.391-49.219,0.39H827.244q-12.3,0-25.976-.39h0ZM1053.12,233.609l-10.06-2.735a12.908,12.908,0,0,1-5.71-2.783q-2.1-1.9-6.1-8.252l-37.111-58.691,27.341-40.039a63.924,63.924,0,0,1,6.2-8.106,14.214,14.214,0,0,1,6.11-3.515l10.93-3.028-0.58-4.98q-10.74.391-22.85,0.39-12.51,0-23.343-.39l0.293,5.176,8.59,2.343q3.915,1.173,3.91,3.809,0,2.343-2.34,6.543t-5.47,8.691l-15.041,23.145-16.7-26.563q-2.05-3.318-3.857-6.494a11.577,11.577,0,0,1-1.807-5.517,3.338,3.338,0,0,1,.879-2.393,5.87,5.87,0,0,1,2.93-1.416l8.594-2.344-0.586-4.98q-17.286.391-32.813,0.39-17.969,0-31.738-.39l0.391,4.98,10.156,2.637a12.889,12.889,0,0,1,5.42,2.783,34.007,34.007,0,0,1,5.517,7.08l33.4,53.028L935.35,220.034a33.3,33.3,0,0,1-5.664,6.983,17.747,17.747,0,0,1-6.25,3.467l-11.231,3.125,0.488,4.882q11.621-.293,22.95-0.293,12.6,0,23.535.293l-0.293-5.078-8.4-2.343a5.065,5.065,0,0,1-2.734-1.514,3.759,3.759,0,0,1-.684-2.3q0-2.733,2.344-6.738t5.371-8.594l19.238-29.981,21.192,33.5q2.051,3.321,3.808,6.494a11.849,11.849,0,0,1,1.759,5.517,3.189,3.189,0,0,1-.88,2.3,6.441,6.441,0,0,1-2.929,1.514l-8.692,2.344,0.684,4.882q18.746-.293,34.277-0.293,16.6,0,30.18.293Zm124.51-96.68,5.38-.879,5.95-31.445-0.58-.879q-18.465-4.491-32.91-4.492-22.755,0-37.01,11.035t-14.26,29.687a36.886,36.886,0,0,0,2.93,15.479,36.411,36.411,0,0,0,7.61,10.986,47.424,47.424,0,0,0,10.65,7.813q5.955,3.222,11.91,6.152,5.475,2.541,10.55,5.078a48.978,48.978,0,0,1,9.08,5.811,26.206,26.206,0,0,1,6.35,7.422,20.3,20.3,0,0,1,2.34,10.107q0,10.547-7.57,16.846t-19.97,6.3a37.051,37.051,0,0,1-15.62-3.222l-7.33-29.883-6.05.977-5.18,35.156,0.59,0.879a112.509,112.509,0,0,0,34.86,5.566q24.51,0,39.46-11.328t14.94-31.152a35.115,35.115,0,0,0-10.74-26.709,51.544,51.544,0,0,0-10.84-8.008q-6.06-3.369-12.02-6.2-5.37-2.538-10.4-5.078a47.833,47.833,0,0,1-8.93-5.762,26.434,26.434,0,0,1-6.25-7.324,21.031,21.031,0,0,1,4.83-25.489,26.284,26.284,0,0,1,17.53-6.054,37.052,37.052,0,0,1,13.58,2.441Zm76.66-7.617q0-4.688.05-8.74c0.04-2.7.08-5.225,0.15-7.569a3.059,3.059,0,0,1,2.54-2.93l13.09-3.613-0.49-4.98q-13.485.391-30.47,0.39-16.5,0-30.08-.39l0.29,4.98,13.09,3.809a3.147,3.147,0,0,1,2.34,3.222q0.1,3.323.15,7.325T1225,129.7v77.832q0,5.861-.05,10.694t-0.15,8.74a3.24,3.24,0,0,1-2.63,3.027l-13.09,3.614,0.49,4.882q13.38-.293,30.47-0.293,16.5,0,30.08.293l-0.3-4.882-12.01-3.418q-3.225-.879-3.32-3.418c-0.07-2.539-.11-5.4-0.15-8.594s-0.05-6.738-.05-10.645V129.312Zm120.22,58.2q-2.145,5.567-4.1,10.547-1.755-4.981-4.01-10.547l-34.08-86.035q-11.625.391-22.75,0.39-8.115,0-24.32-.39l0.29,4.98,13.09,3.809a3.147,3.147,0,0,1,2.34,3.222q0.195,6.445.2,16.211v77.832q0,11.525-.2,19.434a3.206,3.206,0,0,1-2.63,3.027l-13.09,3.614,0.49,4.882q13.575-.293,21.97-0.293,8.505,0,20.02.293l-0.29-4.882-10.74-3.418a3.361,3.361,0,0,1-2.54-3.516q-0.2-7.617-.2-19.141V147.085q0-4.393-.19-18.262,3.51,9.766,6.83,17.676l37.11,92.481,8.79-.782,38.87-95.214q3.7-8.984,7.03-17.383-0.285,14.355-.29,19.433v62.5q0,11.525-.3,19.141c-0.06,1.889-.87,3.061-2.44,3.516l-11.23,3.418,0.49,4.882q11.13-.293,27.64-0.293,16.995,0,30.95.293l-0.39-4.882L1444.14,230a3.216,3.216,0,0,1-2.64-3.027q-0.2-7.91-.19-19.434V129.7q0-9.763.19-16.211a3.166,3.166,0,0,1,2.35-3.222l13.37-3.809-0.58-4.98q-13.1.391-22.76,0.39-10.83,0-24.31-.39Zm144.92-76.27a76.747,76.747,0,0,1,10.84-.781q13.68,0,20.02,7.568t6.35,23q0,15.918-6.69,23.779t-19.48,7.861a58.069,58.069,0,0,1-11.04-1.074V111.245Zm0,69.727a114.821,114.821,0,0,0,15.04,1.074q25.68,0,39.8-11.767,14.1-11.767,14.11-32.959,0-17.969-13.58-27.1t-39.94-9.131q-7.125,0-15.77.391t-17.82.39q-13.38,0-27.05-.39l0.29,4.98,13.09,3.809a3.168,3.168,0,0,1,2.34,3.222q0.09,3.323.15,7.325,0.045,4,.04,8.886v77.832q0,5.861-.04,10.694-0.06,4.833-.15,8.74A3.226,3.226,0,0,1,1487.3,230l-13.08,3.614,0.49,4.882q13.365-.293,30.46-0.293,16.515,0,31.64.293l-0.29-4.882-14.35-4.1a3.344,3.344,0,0,1-2.54-3.125q-0.105-3.71-.15-8.35t-0.05-10.5V180.972Zm124.37-57.959q0.045-6.494.14-10.01a3.059,3.059,0,0,1,2.54-2.93l12.11-3.613-0.49-4.98q-12.495.391-29.49,0.39-16.5,0-29.1-.39l0.29,4.98,12.11,3.809a3.166,3.166,0,0,1,2.35,3.222q0.09,3.323.14,7.325t0.05,8.886v77.832q0,5.861-.05,10.694t-0.14,8.74a3.249,3.249,0,0,1-2.64,3.027l-12.11,3.614,0.49,4.882q12.4-.293,26.95-0.293h24.22q23.04,0,47.17.293l0.68-.683,2.44-38.574-5.95.879-13.38,27.734h-38.19q-0.2-10.547-.19-21.289V129.312C1643.75,129.443,1643.76,127.343,1643.8,123.013Zm70.07-21.533,0.29,4.98,13.08,3.809a3.166,3.166,0,0,1,2.35,3.222q0.09,3.323.14,7.325c0.04,2.67.05,5.632,0.05,8.886v77.832c0,3.907-.01,7.471-0.05,10.694s-0.08,6.137-.14,8.74a3.239,3.239,0,0,1-2.64,3.027l-13.08,3.614,0.48,4.882q13.38-.293,25.98-0.293h25.88q23.04,0,47.36.293l0.69-.683,2.34-36.524-5.96.879-12.3,25.684h-39.06q-0.21-10.547-.2-21.289v-33.5h5.18q8.58,0,18.55.195,2.25,0.1,3.03,2.734l3.61,13.77,6.45-.488q-0.3-14.062-.3-20.9,0-7.03.3-21.191l-6.45.293-3.51,13.379a3.373,3.373,0,0,1-3.32,2.636q-9.78.2-18.27,0.2h-5.27V111.831h37.79l6.25,23.731,5.28-.781,6.05-32.52-0.68-.781q-25.485.391-49.22,0.39h-24.71q-12.3,0-25.97-.39h0ZM765.77,376.929l5.371-.879,5.957-31.445-0.586-.879q-18.457-4.491-32.91-4.492-22.756,0-37.012,11.035t-14.258,29.687a37,37,0,0,0,2.93,15.479,36.394,36.394,0,0,0,7.617,10.986,47.253,47.253,0,0,0,10.644,7.813q5.957,3.222,11.915,6.152,5.467,2.541,10.546,5.078a48.83,48.83,0,0,1,9.082,5.811,26.247,26.247,0,0,1,6.348,7.422,20.266,20.266,0,0,1,2.344,10.107q0,10.547-7.569,16.846t-19.97,6.3a37.065,37.065,0,0,1-15.625-3.222l-7.324-29.883-6.055.977-5.176,35.156,0.586,0.879a112.5,112.5,0,0,0,34.863,5.566q24.511,0,39.453-11.328t14.942-31.152a35.1,35.1,0,0,0-10.742-26.709,51.415,51.415,0,0,0-10.84-8.008q-6.057-3.369-12.012-6.2-5.371-2.538-10.4-5.078a47.852,47.852,0,0,1-8.936-5.762,26.569,26.569,0,0,1-6.25-7.324,21.05,21.05,0,0,1,4.834-25.489,26.27,26.27,0,0,1,17.529-6.054,37.006,37.006,0,0,1,13.575,2.441Zm76.66-7.617q0-4.687.049-8.74T842.625,353a3.056,3.056,0,0,1,2.539-2.93l13.086-3.613-0.488-4.98q-13.477.391-30.469,0.39-16.5,0-30.078-.39l0.293,4.98,13.086,3.809a3.16,3.16,0,0,1,2.344,3.222q0.1,3.323.146,7.325t0.049,8.886v77.832q0,5.861-.049,10.694t-0.146,8.74A3.242,3.242,0,0,1,810.3,470l-13.086,3.614,0.488,4.882q13.379-.293,30.469-0.293,16.5,0,30.078.293l-0.293-4.882-12.012-3.418q-3.222-.879-3.32-3.418-0.1-3.809-.146-8.594t-0.049-10.645V369.312Zm150.781-25.2-0.684-.878a157.009,157.009,0,0,0-35.351-4q-37.4,0-59.033,19.58t-21.631,54.15q0,32.52,21.631,50.684t57.177,18.164a179.972,179.972,0,0,0,39.942-4.785l0.683-.684V445.581q0-4.687.049-8.74t0.147-7.959a3.168,3.168,0,0,1,2.539-2.93l11.62-3.222-0.59-4.883q-11.91.293-28.608,0.293-16.212,0-30.079-.293l0.293,4.883,13.282,3.808a3.174,3.174,0,0,1,2.441,3.223q0.1,3.321.147,7.324t0.048,8.887v25.684a79.241,79.241,0,0,1-11.328.878q-22.168,0-34.472-16.6t-12.3-46.289q0-28.419,12.256-44.678t34.131-16.26a62.666,62.666,0,0,1,19.14,2.637l6.836,26.953,5.469-.781Zm56.449,103.418V385.718q0-6.054-.2-13.281,4.485,6.055,7.91,10.449l76.95,96.387,11.23-1.075V369.7q0-9.764.3-16.211a3.147,3.147,0,0,1,2.34-3.222l13.28-3.809-0.49-4.98q-13.17.391-21.77,0.39-8.4,0-21.88-.39l0.3,5.176,12.5,3.417a3.03,3.03,0,0,1,2.53,2.93q0.195,6.837.2,16.309v50.879q0,6.251.19,12.988-4.1-5.467-8-10.352l-64.94-81.347q-8.595.391-18.17,0.39-7.32,0-20.99-.39l0.29,4.98,13.08,3.809a3.166,3.166,0,0,1,2.35,3.222q0.195,6.446.19,16.211v77.832q0,11.524-.19,19.434a3.226,3.226,0,0,1-2.64,3.027l-13.08,3.614,0.48,4.882q13.575-.293,21.98-0.293,8.49,0,21.68.293l-0.3-5.078L1052.29,470c-1.56-.39-2.37-1.529-2.44-3.418q-0.195-7.518-.19-19.043h0Zm193.55-12.695,6.45,18.359c1.23,3.452,2.18,6.235,2.83,8.35a18.391,18.391,0,0,1,.97,5.127,3.6,3.6,0,0,1-.87,2.637,6.747,6.747,0,0,1-2.84,1.465l-9.66,2.832,0.48,4.882q16.8-.293,34.48-0.293,13.38,0,26.56.293l-0.29-4.882-9.57-2.832a11.316,11.316,0,0,1-5.72-3.467q-1.995-2.393-4.44-9.229l-42.09-118.75-10.55,1.563-48.63,118.457a41.642,41.642,0,0,1-3.91,7.568,9.685,9.685,0,0,1-5.46,3.565l-10.45,3.125,0.48,4.882q11.925-.293,21.2-0.293,8.88,0,23.04.293l-0.29-5.078-9.38-2.734a6,6,0,0,1-2.73-1.367,3.421,3.421,0,0,1-.88-2.539,17.214,17.214,0,0,1,1.12-5.03q1.125-3.27,3.18-8.642l6.93-18.262h40.04Zm-15.53-45.41,12.02,35.254h-32.62l13.38-35.352q2.04-5.468,3.81-10.547,1.56,5.079,3.41,10.645h0Zm126.03-26.416q0.045-6.493.15-10.01a3.05,3.05,0,0,1,2.53-2.93l12.11-3.613-0.48-4.98q-12.51.391-29.5,0.39-16.5,0-29.1-.39l0.29,4.98,12.11,3.809a3.166,3.166,0,0,1,2.35,3.222q0.09,3.323.14,7.325c0.04,2.67.05,5.632,0.05,8.886v77.832c0,3.907-.01,7.471-0.05,10.694s-0.08,6.137-.14,8.74a3.239,3.239,0,0,1-2.64,3.027l-12.11,3.614,0.49,4.882q12.4-.293,26.95-0.293h24.22q23.055,0,47.17.293l0.68-.683,2.45-38.574-5.96.879-13.38,27.734h-38.18q-0.21-10.547-.2-21.289V369.312Q1353.66,369.508,1353.71,363.013Zm144.09,13.916,5.37-.879,5.96-31.445-0.59-.879q-18.45-4.491-32.91-4.492-22.755,0-37.01,11.035t-14.26,29.687a37.043,37.043,0,0,0,2.93,15.479,36.617,36.617,0,0,0,7.62,10.986,47.364,47.364,0,0,0,10.64,7.813q5.97,3.222,11.92,6.152,5.46,2.541,10.55,5.078a48.978,48.978,0,0,1,9.08,5.811,26.368,26.368,0,0,1,6.35,7.422,20.3,20.3,0,0,1,2.34,10.107q0,10.547-7.57,16.846t-19.97,6.3a37.019,37.019,0,0,1-15.62-3.222l-7.33-29.883-6.05.977-5.18,35.156,0.59,0.879a112.462,112.462,0,0,0,34.86,5.566q24.51,0,39.45-11.328t14.94-31.152a35.02,35.02,0,0,0-10.74-26.709,51.287,51.287,0,0,0-10.84-8.008q-6.06-3.369-12.01-6.2-5.37-2.538-10.4-5.078a48.251,48.251,0,0,1-8.94-5.762,26.775,26.775,0,0,1-6.25-7.324,21.059,21.059,0,0,1,4.84-25.489,26.265,26.265,0,0,1,17.53-6.054,37,37,0,0,1,13.57,2.441Z"/>
  <rect class="cls-2" x="352" y="510" width="1500" height="30" rx="15" ry="15"/>
  <rect class="cls-2" x="352" y="40" width="1500" height="30" rx="15" ry="15"/>
  <rect class="cls-1" x="2104" y="40" width="100" height="500" rx="50" ry="50"/>
  <rect class="cls-2" x="1985" y="75" width="100" height="450" rx="50" ry="50"/>
</svg>
