<svg xmlns="http://www.w3.org/2000/svg" width="1586" height="900" viewBox="0 0 1586 900">
  <defs>
    <style>
      .cls-1, .cls-2 {
        fill: #1abb9c;
      }

      .cls-2 {
        fill-rule: evenodd;
      }

      .cls-3 {
        fill: #fb494d;
      }
    </style>
  </defs>
  <rect class="cls-1" x="452" y="100" width="200" height="700" rx="50" ry="50"/>
  <path id="FOREX_SIMPLE_SIGNALS" data-name="FOREX SIMPLE SIGNALS" class="cls-2" d="M901.7,156.14q-49.24.551-61.8,0.55-19.442,0-28.242-.55l-0.917.825V163.2l0.917,0.917a100.754,100.754,0,0,1,10.728.917,4,4,0,0,1,3.118,3.392q1.191,6.694,1.192,28.426V245.36q0,21.732-1.192,28.426a4,4,0,0,1-3.118,3.393,100.754,100.754,0,0,1-10.728.917l-0.917.917v6.235l0.917,0.825q13.937-.642,21.823-0.55l36.862,0.55,1.009-.917v-6.143l-0.917-.917q-12.471-.733-13.113-0.917a3.994,3.994,0,0,1-3.117-3.393q-1.192-6.693-1.192-28.426V223.537q4.952-.276,11.278-0.275,5.227,0,10.637.458,7.886,0.642,9.445,3.851,0.825,1.651.825,11.279l0.917,0.917h6.144l0.917-.825q-0.368-11-.367-20.265,0-8.528.367-18.8l-0.917-.917H886.57l-0.917.917q-0.274,9.9-1.65,12.1-0.825,1.286-3.3,1.375-12.654.46-17.331,0.367l-10.361-.275V201.071q0-24.207,1.008-33.561,8.069-.549,11.829-0.55,23.474,0,25.583,2.843,1.284,1.743,1.467,14.121l0.917,0.917h5.319l0.917-1.009,0.55-7.335q0.457-5.685.825-9.17l1.192-10.453Zm137.64,14.671q-17.79-16.781-49.795-16.78-22.374,0-37.687,7.7Q918.206,178.7,918.206,222.8q0,31.452,17.88,49.1t49.241,17.652q33.2,0,52.363-18.706,19.71-19.257,19.71-53.092,0-29.892-18.06-46.949h0Zm-14.95,82.435q-8.985,25.768-35.12,25.767-21.549,0-32.369-16.964-10.453-16.413-10.453-44.748a81.629,81.629,0,0,1,4.585-28.15q8.892-24.483,36.128-24.483,20.639,0,31.319,15.634t10.68,42.226a92.8,92.8,0,0,1-4.77,30.718h0Zm173.03,26.042-0.92-.917a10.714,10.714,0,0,1-5.87-1.376q-4.125-2.658-16.59-21.915l-14.12-21.732q-5.145-7.886-9.72-15.588,28.05-10.453,28.06-35.395a30.627,30.627,0,0,0-1.66-10.637q-3.39-9.168-13.38-13.02-7.425-2.843-23.29-2.843-6.885,0-20.73.55-6.96.276-18.15,0.275-19.26,0-28.24-.55l-0.92.825V163.2l0.92,0.917a100.416,100.416,0,0,1,10.72.917,4,4,0,0,1,3.12,3.392q1.185,6.6,1.19,28.426V245.36q0,21.825-1.19,28.426a3.994,3.994,0,0,1-3.12,3.393,100.416,100.416,0,0,1-10.72.917l-0.92.917v6.235l0.92,0.825q8.52-.55,28.24-0.55,19.065,0,28.24.55l0.83-.917v-6.143l-0.92-.917a100.759,100.759,0,0,1-10.73-.917,4.007,4.007,0,0,1-3.12-3.393q-1.185-6.6-1.19-28.426V197.4q0-21.639.92-30.626a51.238,51.238,0,0,1,8.8-.734q10.545,0,16.05,2.568,11.55,5.411,11.55,20.906a28.761,28.761,0,0,1-3.94,15.314q-3.945,6.419-8.62,8.986-5.145,2.842-14.12,2.842-1.02,0-3.12-.091l-1.01,3.117a25.615,25.615,0,0,1,5.41,5.594l10.18,15.5L1159,278.738q3.12,5.136,3.48,7.335,10.185-.55,14.86-0.55,3.12,0,15.68.459,2.835,0.09,3.48.091l0.92-.917v-5.868ZM1305.9,253.98h-5.6l-0.91,1.008-2.2,11.371q-0.84,4.218-1.75,5.5a2.944,2.944,0,0,1-1.46,1.009q-6.06,2.111-32.83,2.109h-12.47q-0.465-11.279-.46-23.291V223.72q5.775-.458,12.47-0.458,6.33,0,11.92.458,7.425,0.642,8.9,2.613,1.455,1.974,1.46,12.517l0.92,0.917h6.14l0.92-.825q-0.375-11-.37-20.265,0-8.528.37-18.8l-0.92-.917h-5.68l-0.92.917q-0.465,10.728-1.92,12.379-1.11,1.285-9.54,1.375l-12.01.092q-4.5,0-11.74-.458V194.286q0-17.057,1.01-26.684,8.16-.641,16.14-0.642,6.69,0,15.54.734c5.9,0.49,9.18,1.162,9.86,2.017q1.365,1.743,1.46,14.213l0.92,0.917h5.32l0.92-1.009,0.64-8.527c0.18-2.261.46-5.012,0.82-8.253l1.2-10.178-1.01-.734q-48.33.551-65.57,0.55-19.35,0-28.61-.55l-0.91.825V163.2l0.91,0.917a100.441,100.441,0,0,1,10.73.917,4,4,0,0,1,3.12,3.392q1.185,6.6,1.19,28.426v46.49l-0.27,20.54q-0.2,10.454-1.01,12.195-0.555,1.1-7.34,5.41l-0.46,1.1v2.567l0.92,0.917q6.885-.55,23.57-0.55l66.66,0.55,0.92-.917a205.272,205.272,0,0,1,2.01-30.259Zm129.84,25.033-0.92-.917q-5.685,0-8.21-2.155T1414.37,257.1l-11.73-20.173q-8.535-15.312-13.12-23.749,7.8-10.911,13.21-18.248,9.72-13.2,15.68-20.631t8.02-8.711c1.38-.856,4.17-1.314,8.39-1.376l0.92-.917V157.24l-0.92-.917q-6.33.368-12.47,0.367c-2.45,0-4.92-.122-7.43-0.367q-4.395,7.8-19.16,29.435l-11.92,17.422-10.36-19.256q-6.24-11.554-9.17-16.322-6.15-9.81-11.92-13.571-20.355,4.677-33.29,7.336l-0.82,1.375,0.73,4.86,1.19,0.917c2.57-.183,4.46-0.275,5.69-0.275a8.37,8.37,0,0,1,4.4,1.284q6.225,3.761,18.15,24.3l11.19,19.348,6.97,12.287q-13.935,18.891-14.67,19.807l-12.01,16.23q-9.72,13.2-12.48,14.946-1.56,1.011-9.07,1.559l-0.92,1.009v5.868l0.92,0.917q3.93-.274,12.47-0.275,4.215,0,8.43.275,11.745-20.172,25.5-39.888l7.24-10.361,19.07,35.3q6.24,11.553,8.99,14.946,11.46-.368,16.04-0.275l18.71,0.275,0.92-.917v-5.868ZM862.959,449.072q-4.677-7.152-13.938-10.637a53.266,53.266,0,0,0-10-2.659q-8.8-1.558-10.728-1.834-18.432-2.933-23.383-6.143-7.612-4.952-7.611-15.5A20.55,20.55,0,0,1,804,396.439q7.152-6.51,19.44-6.511a40.558,40.558,0,0,1,15.68,3.118q7.059,3.026,9.9,7.336,0.64,3.3.917,14.3l0.917,0.917h5.777l1.008-.917a158.672,158.672,0,0,1,2.66-26.225l-0.642-2.2q-13.2-6.876-34.661-6.877-23.842,0-37.229,11.737-12.654,11.188-12.654,29.985,0,18.066,11.645,26.683,7.7,5.687,32.186,9.445,10.818,1.65,15.68,4.126,9.81,5.045,9.811,16.781a27.645,27.645,0,0,1-3.576,13.479q-6.969,12.654-25.125,12.654a41.261,41.261,0,0,1-18.522-4.4q-8.529-4.217-11.829-10.087a109.945,109.945,0,0,1-1.1-13.571v-2.109l-0.826-.917H777.59l-0.917.917q0,19.441-2.568,29.985l1.1,2.017a87.143,87.143,0,0,0,37.778,8.8q15.495,0,26.684-4.585a45.036,45.036,0,0,0,19.715-15.13A43.43,43.43,0,0,0,868,468.512q0-11.644-5.043-19.44h0Zm80.509,55.293-0.917-.917a100.756,100.756,0,0,1-10.729-.917,3.994,3.994,0,0,1-3.117-3.393q-1.193-6.6-1.192-28.426V422.205q0-21.822,1.192-28.426a4,4,0,0,1,3.117-3.392,100.756,100.756,0,0,1,10.729-.917l0.917-.917v-6.236l-0.917-.825q-8.8.55-28.151,0.55-19.442,0-28.242-.55l-0.917.825v6.236l0.917,0.917a100.754,100.754,0,0,1,10.728.917A4,4,0,0,1,900,393.779q1.191,6.6,1.192,28.426v48.507q0,21.825-1.192,28.426a4,4,0,0,1-3.118,3.393,100.754,100.754,0,0,1-10.728.917l-0.917.917v6.143l0.825,0.917q9.168-.549,28.242-0.55,19.164,0,28.335.55l0.825-.917v-6.143Zm188.622,0-0.92-.917a100.759,100.759,0,0,1-10.73-.917,4.007,4.007,0,0,1-3.12-3.393q-1.185-6.6-1.19-28.426V422.205q0-21.822,1.19-28.426a4.009,4.009,0,0,1,3.12-3.392,100.759,100.759,0,0,1,10.73-.917l0.92-.826v-6.327l-0.92-.825q-9.54.55-27.51,0.55-3.57,0-13.94-.55-3.66,9.628-7.52,17.973l-21.91,46.856-14.03,28.426-29.16-60.978-5.87-12.654q-5.6-12.654-8.62-19.623-8.343.55-19.53,0.55-14.579,0-24.116-.55l-0.917.825v6.236l0.917,0.917a100.756,100.756,0,0,1,10.729.917,4,4,0,0,1,3.118,3.392q1.19,6.6,1.192,28.426v48.507q0,21.825-1.192,28.426a4,4,0,0,1-3.118,3.393,100.756,100.756,0,0,1-10.729.917l-0.917.917V510.6l0.917,0.825q10.636-.549,21.182-0.55,9.078,0,19.623.55l0.921-.825v-6.235l-0.921-.917a100.754,100.754,0,0,1-10.728-.917,3.993,3.993,0,0,1-3.118-3.393q-1.192-6.6-1.192-28.426V407.075l24.029,49.975,12.83,27.233q8.16,17.331,12.93,28.7h6.15l16.78-36.678q10.17-22.19,11.92-25.675l20.44-41.9v61.986q0,21.825-1.19,28.426a3.982,3.982,0,0,1-3.12,3.393,100.416,100.416,0,0,1-10.72.917l-0.92.917V510.6l0.82,0.825q8.625-.549,28.25-0.55,19.155,0,28.24.55l0.92-.917v-6.143Zm112.6-110.127q-7.515-12.744-32.64-12.746-2.205,0-16.69.275t-22.19.275q-18.615,0-27.6-.55l-1.01.917v6.052l0.91,1.009a100.441,100.441,0,0,1,10.73.917,4.009,4.009,0,0,1,3.12,3.392q1.185,6.6,1.19,28.426v48.507q0,21.825-1.19,28.426a4.007,4.007,0,0,1-3.12,3.393,99.244,99.244,0,0,1-10.63.917l-1.01,1.008V510.6l0.91,0.825q8.535-.549,28.25-0.55,17.505,0,30.07.55l0.92-.917v-6.052l-1.01-1.008q-11.73-.733-12.56-0.917a3.994,3.994,0,0,1-3.12-3.393q-1.185-6.6-1.19-28.426V422.205q0-27.783.82-29.984a104.71,104.71,0,0,1,11.01-1.1q23.01,0,23.01,25.583,0,11.829-5.59,18.385t-14.85,6.557a22.473,22.473,0,0,1-7.07-1.284l-1.92,2.017a38.8,38.8,0,0,1,3.21,6.6,49.42,49.42,0,0,0,11.09,1.284,44.646,44.646,0,0,0,29.12-10.591q12.885-10.59,12.88-29.48,0-9.352-3.85-15.955h0Zm114.44,85.094h-5.6l-0.91,1.008-2.21,11.371q-0.825,4.218-1.74,5.5a2.943,2.943,0,0,1-1.46,1.008q-6.06,2.111-32.83,2.109h-12.47q-0.465-11.279-.46-23.291V422.205q0-21.822,1.19-28.426a4,4,0,0,1,3.12-3.392,100.759,100.759,0,0,1,10.73-.917l0.91-.826v-6.327l-0.91-.825q-9.81.55-28.7,0.55-18.255,0-27.7-.55l-0.91.825v6.236l0.91,0.917a100.441,100.441,0,0,1,10.73.917,4.009,4.009,0,0,1,3.12,3.392q1.185,6.6,1.19,28.426V468.7l-0.27,20.54q-0.195,10.545-1.01,12.2-0.555,1.1-7.34,5.41l-0.46,1.1v2.567l0.92,0.917q6.885-.549,23.57-0.55l66.66,0.55,0.92-.917a205.272,205.272,0,0,1,2.01-30.259Zm113.79,0h-5.59l-0.92,1.008-2.2,11.371q-0.825,4.218-1.74,5.5a3.021,3.021,0,0,1-1.47,1.008q-6.045,2.111-32.83,2.109H1415.7q-0.45-11.279-.46-23.291V449.072q5.775-.457,12.47-0.458,6.33,0,11.92.458c4.96,0.429,7.92,1.3,8.9,2.613s1.47,5.488,1.47,12.517l0.91,0.917h6.15l0.91-.825q-0.36-11-.36-20.265,0-8.528.36-18.8l-0.91-.917h-5.69l-0.91.917q-0.465,10.728-1.93,12.379-1.1,1.285-9.54,1.376l-12.01.091q-4.5,0-11.74-.458V419.638q0-17.056,1.01-26.684,8.16-.641,16.14-0.642,6.69,0,15.54.734t9.86,2.017q1.38,1.743,1.47,14.213l0.91,0.917h5.32l0.92-1.009,0.64-8.527c0.19-2.261.46-5.012,0.83-8.253l1.19-10.178-1.01-.734q-48.33.55-65.56,0.55-19.35,0-28.61-.55l-0.92.825v6.236l0.92,0.917a101.078,101.078,0,0,1,10.73.917,3.986,3.986,0,0,1,3.11,3.392q1.2,6.6,1.2,28.426V468.7l-0.28,20.54q-0.18,10.453-1.01,12.2-0.54,1.1-7.33,5.41l-0.46,1.1v2.567l0.92,0.917q6.87-.549,23.56-0.55l66.66,0.55,0.92-.917a203.822,203.822,0,0,1,2.02-30.259ZM784.238,674.424q-4.677-7.152-13.938-10.637a53.266,53.266,0,0,0-10-2.659q-8.8-1.557-10.728-1.834-18.432-2.932-23.383-6.143-7.612-4.951-7.611-15.5a20.55,20.55,0,0,1,6.694-15.863q7.152-6.51,19.44-6.511A40.558,40.558,0,0,1,760.4,618.4q7.059,3.025,9.9,7.336,0.64,3.3.917,14.3l0.917,0.917h5.777l1.008-.917a158.79,158.79,0,0,1,2.659-26.225l-0.641-2.2q-13.2-6.876-34.661-6.877-23.842,0-37.229,11.737-12.654,11.189-12.654,29.985,0,18.066,11.645,26.683,7.7,5.688,32.186,9.445,10.818,1.651,15.68,4.126,9.81,5.044,9.811,16.781a27.645,27.645,0,0,1-3.576,13.479q-6.969,12.654-25.125,12.654a41.261,41.261,0,0,1-18.522-4.4q-8.529-4.217-11.829-10.087a109.964,109.964,0,0,1-1.1-13.571v-2.109l-0.825-.917h-5.868l-0.917.917q0,19.442-2.568,29.985l1.1,2.017a87.143,87.143,0,0,0,37.778,8.8q15.495,0,26.684-4.585a45.036,45.036,0,0,0,19.715-15.13,43.43,43.43,0,0,0,8.619-26.683q0-11.645-5.043-19.44h0Zm80.509,55.293-0.917-.917a100.756,100.756,0,0,1-10.729-.917,3.994,3.994,0,0,1-3.117-3.393q-1.193-6.6-1.192-28.426V647.557q0-21.822,1.192-28.425a4,4,0,0,1,3.117-3.393,101.059,101.059,0,0,1,10.729-.917l0.917-.917V607.67l-0.917-.826q-8.8.55-28.151,0.55-19.442,0-28.242-.55l-0.917.826v6.235l0.917,0.917a101.057,101.057,0,0,1,10.728.917,4,4,0,0,1,3.118,3.393q1.191,6.6,1.192,28.425v48.507q0,21.825-1.192,28.426a4,4,0,0,1-3.118,3.393,100.754,100.754,0,0,1-10.728.917l-0.917.917v6.144l0.825,0.917q9.168-.551,28.242-0.551,19.164,0,28.334.551l0.826-.917v-6.144Zm154.873-44.2-0.92-.917q-16.77.186-25.212,0.276-14.58.091-27.876-.276l-1.008.917V691.3l1.008,0.917q13.02,0.825,15.5,1.376,2.934,0.642,3.484,2.109,0.641,1.924.642,11,0,11.188-.642,17.606a55.006,55.006,0,0,1-23.2,5.135q-22.649,0-36.77-17.422-13.572-16.781-13.571-42.272,0-15.956,5.685-28.059,12.379-26.224,44.84-26.225a62.125,62.125,0,0,1,22.557,4.034q9.719,3.852,13.754,9.353a50.112,50.112,0,0,1,.917,7.657q0.366,5.457.367,7.2l0.917,0.917h5.5l1.01-.917q1.56-19.989,3.94-28.059l-0.82-1.65q-7.155-3.391-19.533-6.052a142.1,142.1,0,0,0-29.71-3.21q-25.308,0-41.721,8.07Q882.9,630.411,882.9,671.765q0,31.728,20.31,50.112t53.138,18.385q24.94,0,55.569-11.554-0.735-7.609-.73-15.4,0-16.137.91-18.568t6.6-3.805l0.92-1.009v-4.4Zm159.37-77.849-0.92-.826q-9.435.55-21.27,0.55-9.27,0-19.53-.55l-0.92.826v6.235l0.92,0.917a101.382,101.382,0,0,1,10.73.917,3.986,3.986,0,0,1,3.11,3.393q1.2,6.6,1.2,28.425V701.2q-44.565-50.34-77.58-94.355-8.16.55-20.54,0.55-7.89,0-16.6-.55l-0.91.826v6.235l0.91,0.917a100.743,100.743,0,0,1,10.73.917,4.009,4.009,0,0,1,3.12,3.393q1.185,6.6,1.19,28.425v48.507q0,21.825-1.19,28.426a4.007,4.007,0,0,1-3.12,3.393,100.441,100.441,0,0,1-10.73.917l-0.91.917v6.235l0.91,0.826q10.635-.551,21.19-0.551,9.075,0,19.62.551l0.92-.826v-6.235l-0.92-.917a100.759,100.759,0,0,1-10.73-.917,4.007,4.007,0,0,1-3.12-3.393q-1.185-6.6-1.19-28.426V636.1q59.325,73.083,83.9,100.683,5.325,0.732,15.68,2.475l1.19-.825q-1.185-12.47-1.19-53.642V647.557q0-21.822,1.19-28.425a4.009,4.009,0,0,1,3.12-3.393,101.382,101.382,0,0,1,10.73-.917l1.01-.917V607.67Zm147.63,122.322-0.83-1.009a26.683,26.683,0,0,1-8.71-1.1q-2.3-.825-5.13-7.336L1263.35,606.2h-13.02q-5.415,14.029-8.07,21l-23.93,59.877q-14.04,35.03-16.19,38.238t-11.6,3.759l-1.01.917v5.96l0.92,0.826q14.85-.551,18.62-0.551,4.845,0,21.82.551l0.92-.917v-5.869l-0.92-.917q-6.975-.366-9.35-0.734c-2.88-.426-4.31-1.8-4.31-4.126q0-3.209,4.58-15.955l4.04-11.187q14.115-.183,21.27-0.183,13.2,0,25.86.183l7.42,19.348c1.72,4.463,2.57,7.336,2.57,8.619q0,3.3-5.04,3.577l-7.98.458-0.92,1.009v5.777l0.83,0.917q14.49-.551,31.36-0.551,4.215,0,24.57.551l0.83-.917v-5.869ZM1249.59,686.8q-12,0-19.53-.275l18.8-48.049,19.62,48.049q-7.245.274-18.89,0.275h0Zm187.34,17.881h-5.59l-0.92,1.009-2.2,11.37q-0.825,4.218-1.74,5.5a3.021,3.021,0,0,1-1.47,1.008q-6.06,2.111-32.83,2.109h-12.47q-0.465-11.279-.46-23.29V647.557q0-21.822,1.2-28.425a3.986,3.986,0,0,1,3.11-3.393,101.382,101.382,0,0,1,10.73-.917l0.92-.825V607.67l-0.92-.826q-9.81.55-28.7,0.55-18.255,0-27.69-.55l-0.92.826v6.235l0.92,0.917a101.382,101.382,0,0,1,10.73.917,3.986,3.986,0,0,1,3.11,3.393q1.2,6.6,1.2,28.425v46.49l-0.28,20.54q-0.18,10.547-1.01,12.2-0.54,1.1-7.33,5.41l-0.46,1.1v2.568l0.92,0.917q6.87-.551,23.56-0.551l66.66,0.551,0.92-.917a203.826,203.826,0,0,1,2.02-30.26Zm107.83-30.26q-4.665-7.152-13.93-10.637a53.278,53.278,0,0,0-10-2.659q-8.8-1.557-10.73-1.834-18.42-2.932-23.38-6.143-7.6-4.951-7.61-15.5a20.557,20.557,0,0,1,6.69-15.863q7.155-6.51,19.44-6.511a40.547,40.547,0,0,1,15.68,3.118q7.065,3.025,9.91,7.336a112.551,112.551,0,0,1,.91,14.3l0.92,0.917h5.78l1.01-.917a157.918,157.918,0,0,1,2.66-26.225l-0.65-2.2q-13.2-6.876-34.66-6.877-23.835,0-37.23,11.737-12.645,11.189-12.65,29.985,0,18.066,11.64,26.683,7.71,5.688,32.19,9.445,10.815,1.651,15.68,4.126,9.81,5.044,9.81,16.781a27.681,27.681,0,0,1-3.57,13.479q-6.975,12.654-25.13,12.654a41.253,41.253,0,0,1-18.52-4.4q-8.535-4.217-11.83-10.087a110.726,110.726,0,0,1-1.1-13.571v-2.109l-0.83-.917h-5.86l-0.92.917q0,19.442-2.57,29.985l1.1,2.017a87.152,87.152,0,0,0,37.78,8.8q15.495,0,26.68-4.585a45.022,45.022,0,0,0,19.72-15.13,43.462,43.462,0,0,0,8.62-26.683q0-11.645-5.05-19.44h0Z"/>
  <rect class="cls-3" x="254" y="28" width="1332" height="36"/>
  <rect class="cls-1" x="254" y="832" width="1332" height="36"/>
  <rect class="cls-3" x="226" y="200" width="200" height="500" rx="50" ry="50"/>
  <rect class="cls-1" width="200" height="900" rx="50" ry="50"/>
</svg>
