<svg xmlns="http://www.w3.org/2000/svg" width="2796" height="800" viewBox="0 0 2796 800">
  <defs>
    <style>
      .cls-1, .cls-3 {
        fill: #1abb9c;
      }

      .cls-2 {
        fill: #fb494d;
      }

      .cls-3 {
        fill-rule: evenodd;
      }
    </style>
  </defs>
  <rect class="cls-1" width="200" height="800" rx="50" ry="50"/>
  <rect class="cls-2" x="216" y="175" width="200" height="450" rx="50" ry="50"/>
  <rect class="cls-1" x="432" y="100" width="200" height="600" rx="50" ry="50"/>
  <rect class="cls-1" x="2161" y="100" width="200" height="600" rx="50" ry="50"/>
  <path id="FOREX_SIMPLE_SIGNALS" data-name="FOREX SIMPLE SIGNALS" class="cls-3" d="M753.154,261.715q-52.442.585-65.82,0.586-20.7,0-30.078-.586l-0.977.879v6.64l0.977,0.977a107.613,107.613,0,0,1,11.426.977A4.259,4.259,0,0,1,672,274.8q1.268,7.129,1.269,30.273v51.66q0,23.145-1.269,30.274a4.257,4.257,0,0,1-3.32,3.613,107.311,107.311,0,0,1-11.426.977l-0.977.976v6.641l0.977,0.879q14.842-.684,23.242-0.586l39.258,0.586,1.074-.977v-6.543l-0.976-.976q-13.283-.781-13.965-0.977a4.253,4.253,0,0,1-3.321-3.613q-1.27-7.128-1.269-30.274V333.492q5.273-.292,12.012-0.293,5.565,0,11.328.489,8.4,0.684,10.058,4.1,0.879,1.758.879,12.012l0.977,0.976H743.1l0.976-.879q-0.391-11.718-.39-21.582,0-9.081.39-20.019l-0.976-.977h-6.055l-0.977.977q-0.292,10.546-1.757,12.891-0.879,1.368-3.516,1.464-13.476.49-18.457,0.391L701.3,322.75V309.566q0-25.78,1.074-35.742,8.592-.585,12.6-0.586,25,0,27.246,3.028,1.367,1.855,1.562,15.039l0.977,0.976h5.664l0.976-1.074,0.586-7.812q0.488-6.054.879-9.766l1.27-11.133ZM899.736,277.34q-18.946-17.871-53.027-17.871-23.829,0-40.137,8.2-35.84,18.067-35.84,65.039,0,33.5,19.043,52.295t52.442,18.8q35.351,0,55.762-19.922,20.994-20.508,21-56.543,0-31.836-19.239-50h0Zm-15.918,87.793q-9.572,27.443-37.4,27.441-22.95,0-34.473-18.066-11.133-17.479-11.132-47.656a86.956,86.956,0,0,1,4.882-29.981Q815.164,270.8,844.17,270.8q21.972,0,33.35,16.65T888.9,332.418a98.884,98.884,0,0,1-5.078,32.715h0ZM1068.1,392.867l-0.98-.976a11.389,11.389,0,0,1-6.25-1.465q-4.395-2.832-17.68-23.34l-15.04-23.145q-5.46-8.4-10.35-16.6,29.88-11.133,29.89-37.695a32.92,32.92,0,0,0-1.76-11.329q-3.615-9.763-14.26-13.867-7.9-3.026-24.8-3.027-7.335,0-22.075.586-7.423.292-19.336,0.293-20.508,0-30.078-.586l-0.977.879v6.64l0.977,0.977a107.613,107.613,0,0,1,11.426.977,4.259,4.259,0,0,1,3.32,3.613q1.268,7.031,1.269,30.273v51.66q0,23.244-1.269,30.274a4.257,4.257,0,0,1-3.32,3.613,107.311,107.311,0,0,1-11.426.977l-0.977.976v6.641l0.977,0.879q9.083-.587,30.078-0.586,20.312,0,30.078.586l0.879-.977v-6.543l-0.977-.976a107.245,107.245,0,0,1-11.425-.977,4.253,4.253,0,0,1-3.321-3.613q-1.27-7.032-1.269-30.274V305.66q0-23.046.976-32.617a54.719,54.719,0,0,1,9.375-.781q11.229,0,17.1,2.734,12.3,5.763,12.3,22.266a30.54,30.54,0,0,1-4.2,16.308q-4.2,6.837-9.18,9.571-5.475,3.027-15.038,3.027-1.075,0-3.32-.1l-1.075,3.321a27.271,27.271,0,0,1,5.762,5.957l10.841,16.5,24.22,40.429q3.315,5.47,3.71,7.813,10.845-.587,15.82-0.586,3.315,0,16.7.488c2.02,0.064,3.25.1,3.71,0.1l0.98-.977v-6.25Zm115.52-26.953h-5.95l-0.98,1.074-2.34,12.11q-0.885,4.493-1.86,5.859a3.217,3.217,0,0,1-1.56,1.074q-6.45,2.248-34.96,2.246h-13.28q-0.5-12.011-.49-24.8V333.688q6.15-.489,13.28-0.489,6.735,0,12.69.489c5.28,0.456,8.43,1.383,9.48,2.783s1.56,5.844,1.56,13.33l0.98,0.976h6.54l0.98-.879q-0.4-11.718-.4-21.582,0-9.081.4-20.019l-0.98-.977h-6.06l-0.97.977q-0.5,11.425-2.05,13.183-1.17,1.369-10.16,1.465l-12.79.1q-4.785,0-12.5-.488V302.34q0-18.165,1.07-28.418c5.8-.455,11.52-0.684,17.19-0.684q7.125,0,16.55.782t10.5,2.148q1.47,1.855,1.56,15.137l0.98,0.976h5.66l0.98-1.074,0.68-9.082q0.3-3.612.88-8.789l1.27-10.84-1.07-.781q-51.465.585-69.83,0.586-20.595,0-30.47-.586l-0.97.879v6.64l0.97,0.977a107.848,107.848,0,0,1,11.43.977,4.259,4.259,0,0,1,3.32,3.613q1.275,7.031,1.27,30.273v49.512l-0.29,21.875q-0.2,11.133-1.08,12.988-0.585,1.171-7.81,5.762l-0.49,1.172v2.734l0.98,0.977q7.32-.587,25.1-0.586l70.99,0.586,0.98-.977a216.779,216.779,0,0,1,2.15-32.226Zm138.28,26.66-0.97-.976q-6.06,0-8.74-2.3t-13.04-20.069l-12.5-21.484q-9.075-16.308-13.96-25.293,8.3-11.62,14.06-19.434,10.35-14.062,16.7-21.972t8.54-9.278q2.205-1.366,8.94-1.464l0.97-.977v-6.445l-0.97-.977q-6.735.391-13.28,0.391c-2.61,0-5.24-.13-7.91-0.391q-4.7,8.3-20.41,31.348l-12.7,18.555-11.03-20.508q-6.645-12.3-9.77-17.383-6.54-10.449-12.7-14.453-21.675,4.98-35.44,7.812l-0.88,1.465,0.78,5.176,1.27,0.976q4.1-.293,6.05-0.293a8.9,8.9,0,0,1,4.69,1.368q6.645,4,19.34,25.879l11.91,20.605,7.42,13.086q-14.85,20.118-15.62,21.094l-12.8,17.285q-10.35,14.063-13.28,15.918-1.665,1.076-9.67,1.66l-0.97,1.074v6.25l0.97,0.977q4.2-.294,13.29-0.293,4.485,0,8.98.293,12.495-21.483,27.15-42.481l7.71-11.035,20.32,37.6q6.63,12.3,9.57,15.918,12.195-.391,17.09-0.293l19.92,0.293,0.97-.977v-6.25Zm159.97-58.886q-4.995-7.619-14.85-11.329a56.518,56.518,0,0,0-10.64-2.832q-9.375-1.659-11.43-1.953-19.62-3.125-24.9-6.543-8.115-5.272-8.11-16.5,0-10.35,7.13-16.894,7.62-6.933,20.71-6.934a43.131,43.131,0,0,1,16.69,3.321q7.53,3.222,10.55,7.812,0.69,3.516.98,15.234l0.97,0.977h6.16l1.07-.977a169.937,169.937,0,0,1,2.83-27.929l-0.68-2.344q-14.07-7.324-36.91-7.324-25.395,0-39.65,12.5-13.485,11.914-13.48,31.933,0,19.24,12.4,28.418,8.2,6.057,34.28,10.059,11.52,1.758,16.7,4.394,10.455,5.373,10.45,17.872A29.431,29.431,0,0,1,1458.33,379q-7.425,13.476-26.76,13.477a43.922,43.922,0,0,1-19.72-4.688q-9.09-4.491-12.6-10.742a117.378,117.378,0,0,1-1.17-14.453v-2.246l-0.88-.977h-6.25l-0.98.977q0,20.7-2.73,31.933l1.17,2.149a92.8,92.8,0,0,0,40.23,9.375q16.5,0,28.42-4.883a47.969,47.969,0,0,0,21-16.113,46.247,46.247,0,0,0,9.18-28.418q0-12.4-5.37-20.7h0Zm85.74,58.886-0.98-.976a106.883,106.883,0,0,1-11.42-.977,4.267,4.267,0,0,1-3.33-3.613q-1.26-7.032-1.26-30.274v-51.66q0-23.241,1.26-30.273a4.27,4.27,0,0,1,3.33-3.613,107.184,107.184,0,0,1,11.42-.977l0.98-.977v-6.64l-0.98-.879q-9.375.585-29.98,0.586-20.7,0-30.08-.586l-0.97.879v6.64l0.97,0.977a107.848,107.848,0,0,1,11.43.977,4.259,4.259,0,0,1,3.32,3.613q1.26,7.031,1.27,30.273v51.66q0,23.244-1.27,30.274a4.257,4.257,0,0,1-3.32,3.613,107.544,107.544,0,0,1-11.43.977l-0.97.976v6.543l0.87,0.977q9.765-.587,30.08-0.586,20.415,0,30.18.586l0.88-.977v-6.543Zm200.88,0-0.98-.976a107.544,107.544,0,0,1-11.43-.977,4.257,4.257,0,0,1-3.32-3.613q-1.26-7.032-1.27-30.274v-51.66q0-23.241,1.27-30.273a4.259,4.259,0,0,1,3.32-3.613,107.848,107.848,0,0,1,11.43-.977l0.98-.879v-6.738l-0.98-.879q-10.155.585-29.3,0.586-3.81,0-14.84-.586-3.915,10.254-8.01,19.14l-23.34,49.9-14.94,30.273-31.05-64.941-6.25-13.477q-5.97-13.476-9.18-20.9-8.895.585-20.81,0.586-15.525,0-25.68-.586l-0.98.879v6.64l0.98,0.977a107.848,107.848,0,0,1,11.43.977,4.271,4.271,0,0,1,3.32,3.613q1.26,7.031,1.27,30.273v51.66q0,23.244-1.27,30.274a4.269,4.269,0,0,1-3.32,3.613,107.544,107.544,0,0,1-11.43.977l-0.98.976v6.641l0.98,0.879q11.325-.587,22.56-0.586,9.675,0,20.9.586l0.97-.879v-6.641l-0.97-.976a107.544,107.544,0,0,1-11.43-.977,4.257,4.257,0,0,1-3.32-3.613q-1.26-7.032-1.27-30.274V288.961l25.59,53.223,13.67,29q8.685,18.456,13.77,30.566h6.54l17.87-39.063q10.845-23.631,12.7-27.343l21.78-44.629v66.015q0,23.244-1.27,30.274a4.269,4.269,0,0,1-3.32,3.613,107.544,107.544,0,0,1-11.43.977l-0.98.976v6.641l0.88,0.879q9.18-.587,30.08-0.586,20.415,0,30.08.586l0.98-.977v-6.543Zm119.92-117.285q-8.01-13.572-34.77-13.574-2.34,0-17.77.293t-23.63.293q-19.83,0-29.4-.586l-1.07.976v6.446l0.97,1.074a107.848,107.848,0,0,1,11.43.977,4.259,4.259,0,0,1,3.32,3.613q1.275,7.031,1.27,30.273v51.66q0,23.244-1.27,30.274a4.257,4.257,0,0,1-3.32,3.613,106.028,106.028,0,0,1-11.33.977l-1.07,1.074v6.543l0.97,0.879q9.09-.587,30.08-0.586,18.66,0,32.03.586l0.98-.977v-6.445l-1.07-1.074q-12.51-.781-13.38-0.977a4.244,4.244,0,0,1-3.32-3.613q-1.275-7.032-1.27-30.274v-51.66q0-29.589.88-31.933a111.249,111.249,0,0,1,11.71-1.172q24.525,0,24.52,27.246,0,12.6-5.96,19.58t-15.82,6.982a23.882,23.882,0,0,1-7.52-1.367l-2.05,2.149a41.89,41.89,0,0,1,3.42,7.031,52.634,52.634,0,0,0,11.81,1.367,47.536,47.536,0,0,0,31.01-11.279q13.725-11.28,13.72-31.4,0-9.96-4.1-16.992h0Zm121.87,90.625h-5.95l-0.98,1.074-2.34,12.11q-0.885,4.493-1.86,5.859a3.217,3.217,0,0,1-1.56,1.074q-6.45,2.248-34.96,2.246h-13.28q-0.495-12.011-.49-24.8v-58.4q0-23.241,1.27-30.273a4.246,4.246,0,0,1,3.32-3.613,107.184,107.184,0,0,1,11.42-.977l0.98-.879v-6.738l-0.98-.879q-10.44.585-30.56,0.586-19.44,0-29.5-.586l-0.97.879v6.64l0.97,0.977a107.527,107.527,0,0,1,11.43.977,4.259,4.259,0,0,1,3.32,3.613q1.275,7.031,1.27,30.273v49.512l-0.29,21.875q-0.195,11.23-1.08,12.988-0.585,1.171-7.81,5.762l-0.49,1.172v2.734l0.98,0.977q7.32-.587,25.1-0.586l70.99,0.586,0.98-.977a216.779,216.779,0,0,1,2.15-32.226Zm121.19,0h-5.95l-0.98,1.074-2.34,12.11q-0.885,4.493-1.86,5.859a3.17,3.17,0,0,1-1.56,1.074q-6.45,2.248-34.96,2.246h-13.28q-0.495-12.011-.49-24.8V333.688q6.15-.489,13.28-0.489,6.735,0,12.7.489,7.905,0.684,9.47,2.783t1.56,13.33l0.98,0.976h6.54l0.98-.879q-0.39-11.718-.39-21.582,0-9.081.39-20.019l-0.98-.977h-6.05l-0.98.977q-0.5,11.425-2.05,13.183-1.17,1.369-10.16,1.465l-12.79.1q-4.785,0-12.5-.488V302.34q0-18.165,1.07-28.418,8.7-.683,17.19-0.684,7.125,0,16.55.782c6.29,0.521,9.78,1.237,10.5,2.148q1.47,1.855,1.56,15.137l0.98,0.976h5.66l0.98-1.074,0.68-9.082q0.3-3.612.88-8.789l1.27-10.84-1.07-.781q-51.465.585-69.83,0.586-20.595,0-30.46-.586l-0.98.879v6.64l0.98,0.977a107.184,107.184,0,0,1,11.42.977,4.246,4.246,0,0,1,3.32,3.613q1.275,7.031,1.27,30.273v49.512l-0.29,21.875q-0.2,11.133-1.08,12.988-0.585,1.171-7.81,5.762l-0.49,1.172v2.734l0.98,0.977q7.32-.587,25.1-0.586l70.99,0.586,0.98-.977a218.134,218.134,0,0,1,2.15-32.226ZM1035.28,573.688q-4.98-7.618-14.84-11.329a56.625,56.625,0,0,0-10.65-2.832q-9.375-1.659-11.421-1.953-19.629-3.125-24.9-6.543-8.107-5.273-8.106-16.5,0-10.35,7.129-16.894,7.617-6.933,20.7-6.934a43.188,43.188,0,0,1,16.7,3.321q7.53,3.222,10.55,7.812,0.675,3.516.98,15.234l0.97,0.977h6.15l1.08-.977a168.85,168.85,0,0,1,2.83-27.929l-0.68-2.344q-14.07-7.324-36.916-7.324-25.394,0-39.649,12.5-13.476,11.915-13.476,31.933,0,19.24,12.4,28.418,8.2,6.057,34.277,10.059,11.522,1.758,16.7,4.394,10.44,5.373,10.45,17.872A29.431,29.431,0,0,1,1011.75,619q-7.425,13.476-26.76,13.477a43.94,43.94,0,0,1-19.726-4.688q-9.083-4.491-12.6-10.742a117.248,117.248,0,0,1-1.172-14.453v-2.246l-0.879-.977h-6.25l-0.976.977q0,20.7-2.735,31.933l1.172,2.149a92.82,92.82,0,0,0,40.235,9.375q16.5,0,28.419-4.883a47.883,47.883,0,0,0,20.99-16.113,46.247,46.247,0,0,0,9.18-28.418q0-12.4-5.37-20.7h0Zm85.75,58.886-0.98-.976a107.544,107.544,0,0,1-11.43-.977,4.257,4.257,0,0,1-3.32-3.613q-1.26-7.032-1.27-30.274v-51.66q0-23.241,1.27-30.273a4.259,4.259,0,0,1,3.32-3.613,107.848,107.848,0,0,1,11.43-.977l0.98-.977v-6.64l-0.98-.879q-9.375.585-29.98,0.586-20.7,0-30.08-.586l-0.98.879v6.64l0.98,0.977a107.848,107.848,0,0,1,11.43.977,4.271,4.271,0,0,1,3.32,3.613q1.26,7.03,1.27,30.273v51.66q0,23.244-1.27,30.274a4.269,4.269,0,0,1-3.32,3.613,107.544,107.544,0,0,1-11.43.977l-0.98.976v6.543l0.88,0.977q9.765-.587,30.08-0.586,20.415,0,30.18.586l0.88-.977v-6.543Zm164.94-47.07-0.98-.977q-17.865.2-26.86,0.293-15.525.1-29.68-.293l-1.08.977v6.152l1.08,0.977q13.86,0.879,16.5,1.465c2.08,0.456,3.32,1.205,3.71,2.246q0.69,2.05.69,11.719,0,11.914-.69,18.75a58.577,58.577,0,0,1-24.7,5.468q-24.135,0-39.17-18.554-14.445-17.871-14.45-45.02,0-16.992,6.06-29.883,13.185-27.928,47.75-27.929a66.147,66.147,0,0,1,24.02,4.3q10.35,4.1,14.65,9.961a53.248,53.248,0,0,1,.98,8.155q0.39,5.811.39,7.666l0.98,0.976h5.86l1.07-.976q1.665-21.289,4.2-29.883l-0.88-1.758q-7.62-3.612-20.8-6.445a151.389,151.389,0,0,0-31.64-3.418q-26.955,0-44.44,8.594-38.175,18.75-38.18,62.792,0,33.79,21.63,53.37t56.59,19.58q26.565,0,59.18-12.3-0.78-8.1-.78-16.406,0-17.187.98-19.776t7.03-4.052l0.98-1.075V585.5Zm169.72-82.91-0.97-.879q-10.065.585-22.66,0.586-9.87,0-20.8-.586l-0.98.879v6.64l0.98,0.977a107.848,107.848,0,0,1,11.43.977,4.271,4.271,0,0,1,3.32,3.613q1.26,7.03,1.27,30.273V602.2q-47.475-53.613-82.62-100.488-8.7.585-21.88,0.586-8.4,0-17.67-.586l-0.98.879v6.64l0.98,0.977a107.184,107.184,0,0,1,11.42.977,4.246,4.246,0,0,1,3.32,3.613q1.275,7.03,1.27,30.273v51.66q0,23.244-1.27,30.274a4.244,4.244,0,0,1-3.32,3.613,106.883,106.883,0,0,1-11.42.977l-0.98.976v6.641l0.98,0.879q11.325-.587,22.56-0.586,9.66,0,20.89.586l0.98-.879v-6.641l-0.98-.976a107.2,107.2,0,0,1-11.42-.977,4.244,4.244,0,0,1-3.32-3.613q-1.275-7.032-1.27-30.274V532.867q63.18,77.833,89.35,107.227,5.67,0.78,16.7,2.636l1.27-.878q-1.26-13.281-1.27-57.129V545.074q0-23.241,1.27-30.273a4.259,4.259,0,0,1,3.32-3.613,107.848,107.848,0,0,1,11.43-.977l1.07-.977v-6.64Zm157.23,130.273-0.88-1.074a28.44,28.44,0,0,1-9.28-1.172q-2.43-.879-5.47-7.812l-51.75-121.778h-13.87q-5.76,14.942-8.59,22.364l-25.49,63.769q-14.94,37.305-17.24,40.723t-12.35,4l-1.08.976v6.348l0.98,0.879q15.825-.587,19.82-0.586,5.175,0,23.25.586l0.97-.977v-6.25l-0.97-.976q-7.425-.39-9.96-0.782c-3.07-.454-4.59-1.919-4.59-4.394q0-3.417,4.88-16.992l4.3-11.914q15.03-.195,22.65-0.2,14.07,0,27.54.2l7.91,20.605c1.82,4.753,2.74,7.813,2.74,9.18,0,2.344-1.8,3.613-5.38,3.808l-8.49.489-0.98,1.074v6.152l0.88,0.977q15.435-.587,33.4-0.586,4.485,0,26.17.586l0.88-.977v-6.25Zm-82.03-46q-12.8,0-20.8-.293l20.02-51.172,20.9,51.172q-7.725.293-20.12,0.293h0Zm199.51,19.043h-5.96l-0.97,1.074-2.35,12.11q-0.87,4.493-1.85,5.859a3.217,3.217,0,0,1-1.56,1.074q-6.45,2.249-34.97,2.246h-13.28q-0.48-12.011-.49-24.8v-58.4q0-23.241,1.27-30.273a4.271,4.271,0,0,1,3.32-3.613,107.848,107.848,0,0,1,11.43-.977l0.98-.879v-6.738l-0.98-.879q-10.455.585-30.57,0.586-19.425,0-29.49-.586l-0.97.879v6.64l0.97,0.977a107.848,107.848,0,0,1,11.43.977,4.271,4.271,0,0,1,3.32,3.613q1.26,7.03,1.27,30.273v49.512l-0.3,21.875q-0.2,11.23-1.07,12.988-0.585,1.172-7.81,5.762l-0.49,1.172v2.734l0.98,0.977q7.32-.587,25.09-0.586l71,0.586,0.98-.977a218.225,218.225,0,0,1,2.14-32.226Zm114.84-32.226q-4.98-7.618-14.84-11.329a56.723,56.723,0,0,0-10.64-2.832q-9.375-1.659-11.43-1.953-19.635-3.125-24.9-6.543-8.115-5.273-8.11-16.5,0-10.35,7.13-16.894,7.62-6.933,20.7-6.934a43.181,43.181,0,0,1,16.7,3.321q7.53,3.222,10.55,7.812,0.69,3.516.98,15.234l0.97,0.977h6.16l1.07-.977a169.937,169.937,0,0,1,2.83-27.929l-0.68-2.344q-14.07-7.324-36.92-7.324-25.38,0-39.64,12.5-13.485,11.915-13.48,31.933,0,19.24,12.4,28.418,8.205,6.057,34.28,10.059,11.52,1.758,16.7,4.394,10.44,5.373,10.45,17.872A29.431,29.431,0,0,1,1821.71,619q-7.425,13.476-26.76,13.477a43.994,43.994,0,0,1-19.73-4.688q-9.075-4.491-12.59-10.742a117.378,117.378,0,0,1-1.17-14.453v-2.246l-0.88-.977h-6.25l-0.98.977q0,20.7-2.73,31.933l1.17,2.149a92.8,92.8,0,0,0,40.23,9.375q16.5,0,28.42-4.883a47.969,47.969,0,0,0,21-16.113,46.311,46.311,0,0,0,9.18-28.418q0-12.4-5.38-20.7h0Z"/>
  <rect class="cls-2" x="645" y="670" width="1500" height="30"/>
  <rect class="cls-2" x="645" y="166" width="1500" height="30"/>
  <rect class="cls-1" x="2596" y="50" width="200" height="750" rx="50" ry="50"/>
  <rect class="cls-2" x="2380" y="175" width="200" height="450" rx="50" ry="50"/>
</svg>
