<svg xmlns="http://www.w3.org/2000/svg" width="3757" height="800" viewBox="0 0 3757 800">
  <defs>
    <style>
      .cls-1, .cls-2 {
        fill: #1abb9c;
      }

      .cls-1 {
        fill-rule: evenodd;
      }

      .cls-3 {
        fill: #fb494d;
      }
    </style>
  </defs>
  <path class="cls-1" d="M20,0H180a20,20,0,0,1,20,20V780a20,20,0,0,1-20,20H20A20,20,0,0,1,0,780V20A20,20,0,0,1,20,0Zm0,0H180a20,20,0,0,1,20,20V780a20,20,0,0,1-20,20H20A20,20,0,0,1,0,780V20A20,20,0,0,1,20,0Zm0,0H180a20,20,0,0,1,20,20V780a20,20,0,0,1-20,20H20A20,20,0,0,1,0,780V20A20,20,0,0,1,20,0Z"/>
  <rect class="cls-2" x="730" y="279" width="2300" height="37"/>
  <rect class="cls-2" x="730" y="525" width="2300" height="37"/>
  <path id="FOREX_SIMPLE_SIGNALS" data-name="FOREX SIMPLE SIGNALS" class="cls-1" d="M820.708,386.087c-1-11.8-2-29-2.2-32.4-3.2.2-13.2,0.4-30.4,0.4h-67.8v7.4c15.2,1.2,17,2.8,17,20.6v73.6c0,18.4-1.8,19.6-17,21v7.4h64v-7.4c-18-1.2-19.2-2.6-19.2-21v-31.2h21.4c11,0,14,3.4,16.2,17h7.6v-44.4h-7.4c-3,14-4.6,17-16.4,17h-21.4v-43.6c0-6.8.8-7.2,7.6-7.2h15c9.6,0,12.2.8,16.4,5.2,3.4,3.8,6.6,11.2,8.8,18.8Zm15,33.2c0,38.6,29,67.8,69,67.8,37.8,0,68.2-26.8,68.2-69.4,0-39.4-30.2-66.4-67.2-66.4C860.105,351.288,835.706,385.087,835.706,419.287Zm105.8,4c0,36.6-14.8,55-33.8,55-27,0-40.4-29-40.4-62.8,0-35.4,15-55.4,35.4-55.4C925.9,360.087,941.5,383.687,941.5,423.286Zm176,55.2c-5.8-2-8-3.6-12.6-8.8a161.633,161.633,0,0,1-15.2-20.8c-6-9.2-13.8-22.2-16.8-28.2,13.2-5.2,25-14.6,25-32.4,0-12.4-5.4-21.2-13.4-26.6-8.2-5.6-18.4-7.6-36.2-7.6h-58v7.4c15,1.2,17,3.4,17,19.2v76.6c0,16.2-1.8,17.8-17,19.4v7.4h61.2v-7.4c-15-1.8-17-3.2-17-19.4v-29.2l4,0.2c6.4,0,9.2,1.2,12.2,6.6,6.8,12,12.6,24.2,20.6,35.2,6,8.4,13.4,13.8,38.8,15,2.4,0.2,4.8.2,6,.2Zm-83-58.6v-47.8c0-4,.4-6.4,1.8-7.6,1.2-1.2,3.8-2,9.2-2,11.2,0,23.4,7.6,23.4,28.8,0,10.2-2.8,17.8-9.4,23.4-4.4,3.8-11,5.2-19.6,5.2h-5.4Zm192.4,28.4c-3.2,6.8-7.2,14.2-12.2,20-4.4,5.4-7.4,6.8-18.6,6.8h-14.2c-12.4-.2-12.8-4.4-12.8-18.2v-34.4h19.4c11.6,0,13.2,2.4,16.4,17.2h7.8v-44.6h-7.8c-3,14.2-5,17.2-16.2,17.2h-19.6v-41.8c0-6.8.8-7.2,8.4-7.2h13c10.2,0,12.8,1.2,16.4,5.2,3.4,3.6,6.8,11.8,8.6,18.6l7.8-1c-0.8-12.4-1.8-28.8-2-32.4-2.8.2-9.8,0.4-30.8,0.4h-65v7.4c13.6,1.2,16,2.4,16,19.4v76.4c0,16.8-1.2,17.8-19.4,19.6v7.2h103.8c1.8-5.6,7.4-28.6,8.4-34Zm153.19,35.8v-7.4c-13.8-1.4-18-3.4-26-16.4-11.8-17.8-21-33.2-32.6-51.6,9.8-13.8,17.6-25,24.4-34,7.6-9.6,13.6-11.6,26.6-13.2v-7.4h-48.4v7.4c12.4,2.2,14,4.2,10.2,11.2-4.8,8.4-12.2,20.2-18.2,28.4-8.2-13.2-14.6-24-17.8-30.2-2.8-5.8-2.2-8,9.8-9.4v-7.4H1245.7v7.4c15,1.6,19.4,5.2,24.8,14.2,10.2,16.4,18.6,30.4,27.99,46.2-11.39,17.2-24.19,34.8-31.39,43.6-5.8,7-13,10.2-24.2,11.2v7.4h49.79v-7.4c-13.99-2-14.99-4.2-10.39-12.4,3.6-7,12.39-20,21.59-34.2,14.4,24.8,18.6,31.8,20.6,35.2,3.4,6.4,4,9.6-9.6,11.4v7.4h65.2Zm127.4-98.8c-1.6-12.6-3-23-3.8-30.4-4.4-.6-14.8-3.6-28.6-3.6-30,0-46.4,16.6-46.4,37.6,0,20.8,13.6,30.8,34.4,42,16.8,9,24,15.8,24,27.4,0,12.8-7.4,20.4-19.6,20.4-19.6,0-30.8-21.8-34.8-34.4l-7.8,1.8c1.4,9.4,4.8,30.2,6,34.8,9.4,2.8,20.8,6.2,33.6,6.2,28.6,0,48.2-17.2,48.2-40.8,0-19.8-13.6-30.2-35-40.8-17.6-8.8-25-15.4-25-26.4,0-11.2,7.6-19.4,19.2-19.4,18.4,0,24,14.6,28,27.4Zm82.8,98.8v-7.4c-15.2-1.6-17-2.8-17-19.4v-76.2c0-16.8,2-18.2,17-19.6v-7.4h-61.8v7.4c15,1.2,17,2.8,17,19.6v76.2c0,16.8-1.8,18-17,19.4v7.4h61.8Zm183.6,0v-7.4c-16.2-2.2-17-3-17.2-21l-1.6-75c-0.4-16,1.4-17.6,17.4-19.2v-7.4h-42.2l-38.8,88.2-38.6-88.2h-43.2v7.4c17.2,1.6,18.6,7,18,16.6-4.6,66-5.4,77.4-6.2,83.4-1.6,12-6.8,14.2-18.2,15.2v7.4h49.6v-7.4c-15-1.4-19-4.2-19.2-15,0-7.2,0-19.6,2.6-82.4,14.4,35,28.6,72.2,41.6,104.8h6.6c14.4-34,30.2-72,44.6-106.4l0.2,78c0,18-1,19.4-16.2,21v7.4h60.8Zm14.8-130v7.4c15,1,17,2.8,17,19.6v76.4c0,16.8-2,17.4-17,19.2v7.4h63.6v-7.4c-17.4-1.6-18.8-2.4-18.8-19.2v-27.2l11.6,3a50.111,50.111,0,0,0,6,.4c21.4-.2,46-12.4,46-41.4,0-13.8-5.6-23.4-15.6-30-8.2-5.4-20.2-8.2-36-8.2h-56.8Zm44.8,16.4c0-3,.4-5,1.8-6.2,1.2-1,3.6-2,7.8-2,13,0,25.2,7.4,25.2,29.8,0,26.4-15,31.8-24.2,31.8a25.631,25.631,0,0,1-10.6-2v-51.4Zm177.99,76c-3.6,8.2-8.8,16.8-12.6,20.8-4.8,5.4-7.8,7.8-19.2,7.8-0.8,0-10,0-10.4-.2-11-.2-11.4-5.2-11.4-16.2v-77.6c0-16.8,2-18.2,17.6-19.6v-7.4h-62.4v7.4c15,1.2,17,2.8,17,19.6v76.2c0,16.8-1.6,18.2-19.2,19.4v7.4h99.2c1.8-5.4,7.4-26.6,9-35.2Zm119.4,1.8c-3.2,6.8-7.2,14.2-12.2,20-4.4,5.4-7.4,6.8-18.6,6.8h-14.2c-12.4-.2-12.8-4.4-12.8-18.2v-34.4h19.4c11.6,0,13.2,2.4,16.4,17.2h7.8v-44.6h-7.8c-3,14.2-5,17.2-16.2,17.2h-19.6v-41.8c0-6.8.8-7.2,8.4-7.2h13c10.2,0,12.8,1.2,16.4,5.2,3.4,3.6,6.8,11.8,8.6,18.6l7.8-1c-0.8-12.4-1.8-28.8-2-32.4-2.8.2-9.8,0.4-30.8,0.4h-65v7.4c13.6,1.2,16,2.4,16,19.4v76.4c0,16.8-1.2,17.8-19.4,19.6v7.2h103.8c1.8-5.6,7.4-28.6,8.4-34Zm145.8-63c-1.6-12.6-3-23-3.8-30.4-4.4-.6-14.8-3.6-28.6-3.6-30,0-46.4,16.6-46.4,37.6,0,20.8,13.6,30.8,34.4,42,16.8,9,24,15.8,24,27.4,0,12.8-7.4,20.4-19.6,20.4-19.6,0-30.8-21.8-34.8-34.4l-7.8,1.8c1.4,9.4,4.8,30.2,6,34.8,9.4,2.8,20.8,6.2,33.6,6.2,28.6,0,48.2-17.2,48.2-40.8,0-19.8-13.6-30.2-35-40.8-17.6-8.8-25-15.4-25-26.4,0-11.2,7.6-19.4,19.2-19.4,18.4,0,24,14.6,28,27.4Zm82.8,98.8v-7.4c-15.2-1.6-17-2.8-17-19.4v-76.2c0-16.8,2-18.2,17-19.6v-7.4h-61.8v7.4c15,1.2,17,2.8,17,19.6v76.2c0,16.8-1.8,18-17,19.4v7.4h61.8Zm151.39-62.2h-59.8v7.4c16.8,2,19.6,3.4,19.6,17.4v17.6c0,6.2-1.6,9.6-4.6,11.4-3.6,2.2-8.8,2.8-12.8,2.8-32.8,0-45.2-27.8-45.2-63,0-34.4,18.2-55.4,42.4-55.4,5,0,12.4.8,17,2.4,12.4,4.2,19.8,12.8,24.6,29.8l7.8-1.4c-1.4-11-3-26.2-3.4-35-6.6-.6-24.2-4.6-40.4-4.6-42.6,0-79.2,22.6-79.2,67.6,0,39.6,27,68.2,74,68.2,16.2,0,38.2-4.8,48.4-6.6-1-5.4-1.2-12.2-1.2-19.4v-15.4c0-13.6,1.4-14.4,12.8-16.4v-7.4Zm153.4-67.8h-49.4v7.4c16.6,1,19.8,5.2,20.4,13.8,0.6,7.4.8,14,.8,31.4v36l-76.2-88.6h-39v7.4c8.4,0.8,13.2,1.4,16.8,6.4,3.8,5.2,4.2,9.6,4.2,16.2v47.4c0,17.4-.4,24.6-1.2,31.8-1.2,9.4-6.2,12.4-17.6,13.4v7.4h49.6v-7.4c-14.8-.8-19-5.4-19.8-14.2-0.6-5.8-1-13.6-1-31v-45.2l83.4,100h11.2v-79.6c0-17.4.6-24.2,1.2-32,0.6-9,4.4-11.6,16.6-13.2v-7.4Zm135.8,130v-7.4c-13-1.6-14.8-3-22.2-21.6-13-33.4-26.6-69-39.4-103.8l-9.6,1.8-41.6,103.4c-6.8,16.8-10,18.6-22.6,20.2v7.4h49.4v-7.4c-15.8-1.4-20.6-3-16.4-15.6,2-6.2,4.8-13.8,7-20h39c3,8,6.2,17,8.2,23,2.8,8.6,2.8,10.8-9.8,12.6v7.4h58Zm-60.2-53.2h-31.8c5-14.6,10.6-28,16.4-42.4Zm165.8,15.6c-3.6,8.2-8.8,16.8-12.6,20.8-4.8,5.4-7.8,7.8-19.2,7.8-0.8,0-10,0-10.4-.2-11-.2-11.4-5.2-11.4-16.2v-77.6c0-16.8,2-18.2,17.6-19.6v-7.4h-62.4v7.4c15,1.2,17,2.8,17,19.6v76.2c0,16.8-1.6,18.2-19.2,19.4v7.4h99.2c1.8-5.4,7.4-26.6,9-35.2Zm104.8-61.2c-1.6-12.6-3-23-3.8-30.4-4.4-.6-14.8-3.6-28.6-3.6-30,0-46.4,16.6-46.4,37.6,0,20.8,13.6,30.8,34.4,42,16.8,9,24,15.8,24,27.4,0,12.8-7.4,20.4-19.6,20.4-19.6,0-30.8-21.8-34.8-34.4l-7.8,1.8c1.4,9.4,4.8,30.2,6,34.8,9.4,2.8,20.8,6.2,33.6,6.2,28.6,0,48.2-17.2,48.2-40.8,0-19.8-13.6-30.2-35-40.8-17.6-8.8-25-15.4-25-26.4,0-11.2,7.6-19.4,19.2-19.4,18.4,0,24,14.6,28,27.4Z"/>
  <rect class="cls-2" x="3557" y="25" width="200" height="750" rx="20" ry="20"/>
  <rect class="cls-2" x="3066" y="200" width="200" height="400" rx="20" ry="20"/>
  <rect class="cls-3" x="247" y="200" width="200" height="400" rx="20" ry="20"/>
  <rect class="cls-2" x="483" y="100" width="200" height="600" rx="20" ry="20"/>
  <rect class="cls-3" x="3310" y="100" width="200" height="600" rx="20" ry="20"/>
</svg>
