<svg xmlns="http://www.w3.org/2000/svg" width="2204" height="600" viewBox="0 0 2204 600">
  <defs>
    <style>
      .cls-1, .cls-3 {
        fill: #1abb9c;
      }

      .cls-2 {
        fill: #fb494d;
      }

      .cls-3 {
        fill-rule: evenodd;
      }
    </style>
  </defs>
  <rect class="cls-1" width="100" height="600" rx="50" ry="50"/>
  <rect class="cls-2" x="119" y="75" width="100" height="450" rx="50" ry="50"/>
  <rect class="cls-1" x="238" y="25" width="100" height="550" rx="50" ry="50"/>
  <rect class="cls-1" x="1866" width="100" height="600" rx="50" ry="50"/>
  <path id="FOREX_SIMPLE_SIGNALS" data-name="FOREX SIMPLE SIGNALS" class="cls-3" d="M409.326,293.224h67.385V282.451l-29.065-3h-9.255l-29.065,3v10.773Zm14.75,0h34.965c-0.6-20.6-.6-41.4-0.6-62.793v-6.578c0-21,0-41.8.6-62H424.076c0.6,20.6.6,41.4,0.6,62v7.372C424.676,252.225,424.676,273.024,424.076,293.224Zm17.482-61.9h44.61V219.5h-44.61v11.828Zm41.5,17.5h11.627V203.8H483.06l-3,19.156v5.708Zm-73.734-76.192,29.065,3h3.167V161.854H409.326v10.773Zm88.139,23.658h16.746l-1.4-34.431H441.558v11.313H499.5l-7-6Zm89.556,100.669c33.043,0,63.48-23.28,63.48-69.415,0-46.621-30.637-69.415-63.48-69.415s-63.535,23.28-63.535,69.415C523.486,274.16,553.978,296.954,587.021,296.954Zm0-11.606c-20.025,0-27.938-24.6-27.938-57.809,0-33.065,7.913-57.956,27.938-57.956s27.884,24.891,27.884,57.956C614.905,260.75,607.046,285.348,587.021,285.348Zm73.9,7.876H725.39V282.451l-29.065-3H689.99l-29.065,3v10.773Zm14.75,0h34.381c-0.6-20.6-.6-41.4-0.6-62.685v-6.146c0-21.7,0-42.178.6-62.539H675.675c0.6,20.6.6,41.4,0.6,62v7.372C676.275,252.225,676.275,273.024,675.675,293.224Zm92.589,2.876c9.212,0,12.406-.654,21.991-2.876V282.451l-30.088-3.276,16.564,10.368-5.275-30.863c-3.5-21.5-11.426-31.9-43.2-32.861l-0.162,2.038c35.542-1.908,46.9-17.6,46.9-32.848,0-20.74-17.416-33.155-48.891-33.155H693.158v11.535h24.718c16.274,0,24.982,7.74,24.982,23.81,0,12.842-6.021,24.442-25.869,24.442H693.45v11.19h23.232c11.929,0,16.847,6.157,18.8,19.583l3.675,23.112C741.123,291.148,751.194,296.1,768.264,296.1ZM660.925,172.627l29.065,3h3.168V161.854H660.925v10.773Zm136.6,120.6h32.232V279.451H826.59l-29.065,3v10.773Zm14.75,0H847.24c-0.6-20.6-.6-41.4-0.6-62.793v-6.578c0-21,0-41.8.6-62H812.275c0.6,20.6.6,41.4,0.6,62v7.372C812.875,252.225,812.875,273.024,812.275,293.224Zm17.482,0H903.7l1.4-34.432H888.35l-4.962,29.264,7-6H829.757v11.168Zm0-61.9h44.032V219.5H829.757v11.828Zm40.924,15.5h11.627V203.8H870.681l-3,19.156v3.708Zm-73.156-74.192,29.065,3h3.167V161.854H797.525v10.773Zm86.825,23.658H901.1l-1.4-34.431h-69.94v11.313h56.631l-7-6Zm25.672,96.939h42.5V282.451l-19.27-1.687h-4.876l-18.35,1.687v10.773Zm7.291,0H932.6l41.891-66.475-9.757-4.324Zm54.863,0H1038.1V282.451l-28.92-3h-9.11l-27.894,3v10.773Zm9.451-65.535,42.593-65.835h-15.29l-36.622,61.073Zm12.284,65.535h37.079l-76.567-131.37H917.345ZM910.8,172.627l25.416,3h10.13l27.168-3V161.854H910.8v10.773Zm78.854,0,18.536,1.54h5.03l18.2-1.54V161.854H989.654v10.773ZM1132.56,296.954c34.26,0,52.31-16.735,52.31-40.335,0-20.26-10.49-31.275-36.02-42.789l-9.4-4.314c-11.83-5.308-18.13-10.81-18.13-21.366,0-10.913,9.17-18.129,20.54-18.129,10.31,0,17.85,4.13,28.53,11.832v-10l-16.16-5.724,4.87,30.2h18.42l1.64-28.043c-9.77-6.4-23.58-10.162-37.85-10.162-30.37,0-49.77,14.583-49.77,38.605,0,22.151,13.57,34.043,37.18,44.816l8.47,3.876c12,5.34,17.17,10.118,17.17,20.637,0,10.782-7.63,19-21.82,19-12.87,0-21.13-3.562-33.82-10.372v9.6l15.48,4.87-5.2-32.4h-18.71l-1.2,29.751C1100.62,293.614,1117.56,296.954,1132.56,296.954Zm63.96-3.73h64.61V282.451l-29.65-3h-5.89l-29.07,3v10.773Zm14.75,0h34.97c-0.6-20.6-.6-41.4-0.6-62.145v-7.226c0-21,0-41.8.6-62h-34.97c0.6,20.6.6,41.4,0.6,62v7.372C1211.87,252.225,1211.87,273.024,1211.27,293.224Zm-14.75-120.6,29.07,3h5.89l29.65-3V161.854h-64.61v10.773Zm74.7,120.6h48.83V282.451l-19.74-3h-5.75l-23.34,3v10.773Zm1.75-120.6,25.61,3h3.27l-0.29-13.773h-28.59v10.773Zm17.56,120.6h12.98V231.233L1302,161.854h-11.47v131.37Zm50.09,0h15.5l46.06-131.37h-13.22l-33.85,97.08h6.66l-35.87-97.08h-34.14Zm35.77,0h63.92V282.451l-29.06-3h-9.26l-25.6,3v10.773Zm14.31,0h34.86c-0.6-20.308-.6-41.107-0.6-62v-7.372c0-20.708,0-41.508.6-62h-33.53l-0.73,73.6C1391.16,251.933,1391.3,272.732,1390.7,293.224Zm17.38-117.6h3.17l28.33-3V161.854h-31.5v13.773Zm45.04,117.6h67.38V282.451l-29.06-3h-9.26l-29.06,3v10.773Zm14.75,0h34.96c-0.6-20.6-.6-40.859-0.6-57.172v-12.2c0-21,0-41.8.6-62h-34.96c0.6,20.6.6,41.4,0.6,62v7.372C1468.47,252.225,1468.47,273.024,1467.87,293.224ZM1485.35,243h22.43c43.42,0,58.09-18.8,58.09-41.637,0-23.838-16.56-39.507-58.37-39.507h-22.15v11.535h21.85c17.34,0,27.12,9.448,27.12,27.826,0,18.27-8.73,30.54-26.32,30.54h-22.65V243Zm-32.23-70.371,29.06,3h3.17V161.854h-32.23v10.773Zm120.59,120.6h32.24V279.451h-3.17l-29.07,3v10.773Zm14.76,0h34.96c-0.6-20.492-.6-41.291-0.6-58.875v-10.5c0-20.892,0-41.692.6-62h-34.96c0.6,20.491.6,41.291,0.6,62v11.6C1589.07,252.117,1589.07,272.916,1588.47,293.224Zm17.48,0h71.4l2-39.2h-16.09l-6.71,33.545,7.2-5.8h-57.8v11.46Zm-32.24-120.6,29.07,3h7.36l29.65-3V161.854h-66.08v10.773Zm115,120.6h32.24V279.451h-3.17l-29.07,3v10.773Zm14.75,0h34.97c-0.6-20.6-.6-41.4-0.6-62.793v-6.578c0-21,0-41.8.6-62h-34.97c0.6,20.6.6,41.4,0.6,62v7.372C1704.06,252.225,1704.06,273.024,1703.46,293.224Zm17.49,0h73.94l1.4-34.432h-16.75l-4.96,29.264,7-6h-60.63v11.168Zm0-61.9h44.03V219.5h-44.03v11.828Zm40.92,15.5h11.63V203.8h-11.63l-3,19.156v3.708Zm-73.16-74.192,29.07,3h3.17V161.854h-32.24v10.773Zm86.83,23.658h16.75l-1.4-34.431h-69.94v11.313h56.63l-7-6ZM748.861,496.954c34.26,0,52.308-16.735,52.308-40.335,0-20.26-10.492-31.275-36.016-42.789l-9.4-4.314c-11.827-5.308-18.129-10.81-18.129-21.366,0-10.913,9.173-18.129,20.539-18.129,10.308,0,17.854,4.13,28.53,11.832v-10l-16.157-5.724,4.87,30.2h18.422l1.638-28.043c-9.768-6.4-23.579-10.162-37.854-10.162-30.363,0-49.763,14.583-49.763,38.6,0,22.151,13.562,34.043,37.173,44.816l8.476,3.876c12,5.34,17.171,10.118,17.171,20.637,0,10.782-7.637,19-21.819,19-12.87,0-21.13-3.562-33.822-10.372v9.6l15.482,4.87-5.2-32.4H706.59l-1.2,29.751C716.926,493.614,733.861,496.954,748.861,496.954Zm63.96-3.73h64.612V482.451l-29.649-3h-5.9l-29.065,3v10.773Zm14.751,0h34.964c-0.6-20.6-.6-41.4-0.6-62.145v-7.226c0-21,0-41.8.6-62H827.572c0.6,20.6.6,41.4,0.6,62v7.372C828.172,452.225,828.172,473.024,827.572,493.224Zm-14.751-120.6,29.065,3h5.9l29.649-3V361.854H812.821v10.773Zm144.2,124.327c17.767,0,31.367-3.724,45.315-11.654v-8.362c0-16.622.2-32.459,0.6-48.481H969.725c0.4,16.368.6,31.53,0.6,47.751v15.249l15.276-12.9c-8.626,4.724-14.252,7.032-22.587,7.032-22,0-39.635-18.588-39.635-58.339,0-39.805,18.41-57.81,39.987-57.81,8.712,0,17.085,2.941,26.863,10.6V369.518l-13.86-2.832,7.044,31.789H998.97l-0.8-31.189c-11.638-6.162-25.643-9.162-38.74-9.162-45.416,0-71.648,27.026-71.648,69.123C887.782,470.949,915.857,496.954,957.025,496.954Zm-5.034-57.723,24.393,3.167h13.2l23.46-3.167V428.457H951.991v10.774Zm66.769,53.993h52.82V482.451l-25.77-3h-5.75l-21.3,3v10.773Zm17,0h12.92V367.183h-12.92V493.224Zm64.4-120.6,26.92,3h5.6l20.29-3V361.854h-52.81v10.773ZM1118.92,493.6h17.05V361.854h-12.92V442.4l-58.69-80.546h-45.33v10.919l13.77,1.216Zm30.51-.378h43.08V482.451l-18.93-3h-3.57l-20.58,3v10.773Zm11.59,0h11.89l32.7-100.591,32.02,100.591h34.36l-44.98-131.641h-20.75Zm20.39-38.107h61.86l-4.52-11.681h-54Zm36.9,38.107h61.74V482.889l-25.68-3h-13.48l-22.58,3v10.335Zm70.31,0h32.23V479.451h-3.17l-29.06,3v10.773Zm14.75,0h34.96c-0.6-20.492-.6-41.291-0.6-58.875v-10.5c0-20.892,0-41.692.6-62h-34.96c0.6,20.491.6,41.291,0.6,62v11.605C1303.97,452.117,1303.97,472.916,1303.37,493.224Zm17.48,0h71.4l2-39.2h-16.09l-6.71,33.545,7.2-5.8h-57.8v11.46Zm-32.23-120.6,29.06,3h7.36l29.65-3V361.854h-66.07v10.773Zm158.64,124.327c34.26,0,52.3-16.735,52.3-40.335,0-20.26-10.49-31.275-36.01-42.789l-9.41-4.314c-11.82-5.308-18.13-10.81-18.13-21.366,0-10.913,9.18-18.129,20.54-18.129,10.31,0,17.86,4.13,28.53,11.832v-10l-16.15-5.724,4.87,30.2h18.42l1.64-28.043c-9.77-6.4-23.58-10.162-37.86-10.162-30.36,0-49.76,14.583-49.76,38.6,0,22.151,13.56,34.043,37.17,44.816l8.48,3.876c12,5.34,17.17,10.118,17.17,20.637,0,10.782-7.64,19-21.82,19-12.87,0-21.13-3.562-33.82-10.372v9.6l15.48,4.87-5.2-32.4h-18.72l-1.19,29.751C1415.32,493.614,1432.26,496.954,1447.26,496.954Z"/>
  <rect class="cls-2" x="352" y="525" width="1500" height="30" rx="15" ry="15"/>
  <rect class="cls-2" x="352" y="96" width="1500" height="30" rx="15" ry="15"/>
  <rect class="cls-1" x="2104" y="40" width="100" height="500" rx="50" ry="50"/>
  <rect class="cls-2" x="1985" y="75" width="100" height="450" rx="50" ry="50"/>
</svg>
